HIERARCHY
ROOT Root
{
  OFFSET 0.0 0.0 0.0
  CHANNELS 6 Xposition Yposition Zposition Zrotation Yrotation Xrotation
  JOINT Hips
  {
    OFFSET 0.0 100.0 0.0
    CHANNELS 6 Xposition Yposition Zposition Zrotation Yrotation Xrotation
    JOINT Spine1
    {
      OFFSET -0.013727 5.003763 -0.053727
      CHANNELS 3 Zrotation Yrotation Xrotation
      JOINT Spine2
      {
        OFFSET -0.0 7.125301 -0.029825
        CHANNELS 3 Zrotation Yrotation Xrotation
        JOINT Chest
        {
          OFFSET -1e-06 7.550063 -0.815971
          CHANNELS 3 Zrotation Yrotation Xrotation
          JOINT Neck1
          {
            OFFSET -0.181677 26.311295 -0.553348
            CHANNELS 3 Zrotation Yrotation Xrotation
            JOINT Neck2
            {
              OFFSET -3e-06 7.709397 2.302585
              CHANNELS 3 Zrotation Yrotation Xrotation
              JOINT Head
              {
                OFFSET -5e-06 6.128916 1.953709
                CHANNELS 3 Zrotation Yrotation Xrotation
                JOINT HeadEnd
                {
                  OFFSET 0.003598 16.065403 -1.835379
                  CHANNELS 3 Zrotation Yrotation Xrotation
                }
                JOINT Jaw
                {
                  OFFSET 0.002637 0.475592 3.094941
                  CHANNELS 3 Zrotation Yrotation Xrotation
                }
                JOINT LeftEye
                {
                  OFFSET 3.206381 5.380205 7.586883
                  CHANNELS 3 Zrotation Yrotation Xrotation
                }
                JOINT RightEye
                {
                  OFFSET -3.22244 5.361869 7.558234
                  CHANNELS 3 Zrotation Yrotation Xrotation
                }
              }
            }
          }
          JOINT LeftShoulder
          {
            OFFSET 1.621652 23.237164 5.113413
            CHANNELS 3 Zrotation Yrotation Xrotation
            JOINT LeftArm
            {
              OFFSET 14.919846 2e-06 -5.502326
              CHANNELS 3 Zrotation Yrotation Xrotation
              JOINT LeftForeArm
              {
                OFFSET 28.739307 0.0 -0.002588
                CHANNELS 3 Zrotation Yrotation Xrotation
                JOINT LeftHand
                {
                  OFFSET 27.093981 -1e-06 0.002609
                  CHANNELS 3 Zrotation Yrotation Xrotation
                  JOINT LeftHandThumb1
                  {
                    OFFSET 2.276482 -1.392045 3.191413
                    CHANNELS 3 Zrotation Yrotation Xrotation
                    JOINT LeftHandThumb2
                    {
                      OFFSET 4.012836 -1.828127 1.641654
                      CHANNELS 3 Zrotation Yrotation Xrotation
                      JOINT LeftHandThumb3
                      {
                        OFFSET 2.798515 0.0 -3e-06
                        CHANNELS 3 Zrotation Yrotation Xrotation
                        JOINT LeftHandThumbEnd
                        {
                          OFFSET 3.180793 -4e-06 4e-06
                          CHANNELS 3 Zrotation Yrotation Xrotation
                        }
                      }
                    }
                  }
                  JOINT LeftHandIndex1
                  {
                    OFFSET 3.247555 -0.531998 2.296169
                    CHANNELS 3 Zrotation Yrotation Xrotation
                    JOINT LeftHandIndex2
                    {
                      OFFSET 6.364578 0.01206 0.1786
                      CHANNELS 3 Zrotation Yrotation Xrotation
                      JOINT LeftHandIndex3
                      {
                        OFFSET 3.662364 0.0 0.0
                        CHANNELS 3 Zrotation Yrotation Xrotation
                        JOINT LeftHandIndex4
                        {
                          OFFSET 2.329242 4e-06 4e-06
                          CHANNELS 3 Zrotation Yrotation Xrotation
                          JOINT LeftHandIndexEnd
                          {
                            OFFSET 2.759615 -0.180537 -0.113024
                            CHANNELS 3 Zrotation Yrotation Xrotation
                          }
                        }
                      }
                    }
                  }
                  JOINT LeftHandMiddle1
                  {
                    OFFSET 3.163495 0.240981 1.000332
                    CHANNELS 3 Zrotation Yrotation Xrotation
                    JOINT LeftHandMiddle2
                    {
                      OFFSET 6.19078 -0.259278 -1.002548
                      CHANNELS 3 Zrotation Yrotation Xrotation
                      JOINT LeftHandMiddle3
                      {
                        OFFSET 4.35652 -4e-06 -1e-06
                        CHANNELS 3 Zrotation Yrotation Xrotation
                        JOINT LeftHandMiddle4
                        {
                          OFFSET 2.996877 -8e-06 0.0
                          CHANNELS 3 Zrotation Yrotation Xrotation
                          JOINT LeftHandMiddleEnd
                          {
                            OFFSET 2.304287 -0.294569 -0.031741
                            CHANNELS 3 Zrotation Yrotation Xrotation
                          }
                        }
                      }
                    }
                  }
                  JOINT LeftHandRing1
                  {
                    OFFSET 2.882643 -0.053652 -0.322543
                    CHANNELS 3 Zrotation Yrotation Xrotation
                    JOINT LeftHandRing2
                    {
                      OFFSET 5.854541 -0.486202 -1.373841
                      CHANNELS 3 Zrotation Yrotation Xrotation
                      JOINT LeftHandRing3
                      {
                        OFFSET 4.350578 0.0 3e-06
                        CHANNELS 3 Zrotation Yrotation Xrotation
                        JOINT LeftHandRing4
                        {
                          OFFSET 2.651321 7e-06 2e-06
                          CHANNELS 3 Zrotation Yrotation Xrotation
                          JOINT LeftHandRingEnd
                          {
                            OFFSET 1.936105 0.077687 -7.1e-05
                            CHANNELS 3 Zrotation Yrotation Xrotation
                          }
                        }
                      }
                    }
                  }
                  JOINT LeftHandPinky1
                  {
                    OFFSET 2.8655 -0.310005 -1.600378
                    CHANNELS 3 Zrotation Yrotation Xrotation
                    JOINT LeftHandPinky2
                    {
                      OFFSET 5.087849 -1.331141 -1.77123
                      CHANNELS 3 Zrotation Yrotation Xrotation
                      JOINT LeftHandPinky3
                      {
                        OFFSET 3.070974 4e-06 0.0
                        CHANNELS 3 Zrotation Yrotation Xrotation
                        JOINT LeftHandPinky4
                        {
                          OFFSET 1.549672 0.0 1e-06
                          CHANNELS 3 Zrotation Yrotation Xrotation
                          JOINT LeftHandPinkyEnd
                          {
                            OFFSET 1.944893 -0.157802 0.057219
                            CHANNELS 3 Zrotation Yrotation Xrotation
                          }
                        }
                      }
                    }
                  }
                }
              }
            }
          }
          JOINT RightShoulder
          {
            OFFSET -1.380118 23.180309 5.214158
            CHANNELS 3 Zrotation Yrotation Xrotation
            JOINT RightArm
            {
              OFFSET -15.037196 1.2e-05 -5.545604
              CHANNELS 3 Zrotation Yrotation Xrotation
              JOINT RightForeArm
              {
                OFFSET -28.736639 2e-06 -0.002597
                CHANNELS 3 Zrotation Yrotation Xrotation
                JOINT RightHand
                {
                  OFFSET -27.133619 -0.0 0.002613
                  CHANNELS 3 Zrotation Yrotation Xrotation
                  JOINT RightHandThumb1
                  {
                    OFFSET -2.274032 -1.383988 3.163127
                    CHANNELS 3 Zrotation Yrotation Xrotation
                    JOINT RightHandThumb2
                    {
                      OFFSET -4.011429 -1.827466 1.640914
                      CHANNELS 3 Zrotation Yrotation Xrotation
                      JOINT RightHandThumb3
                      {
                        OFFSET -2.794935 -4e-06 -3e-06
                        CHANNELS 3 Zrotation Yrotation Xrotation
                        JOINT RightHandThumbEnd
                        {
                          OFFSET -3.183852 4e-06 1e-06
                          CHANNELS 3 Zrotation Yrotation Xrotation
                        }
                      }
                    }
                  }
                  JOINT RightHandIndex1
                  {
                    OFFSET -3.253266 -0.520057 2.282866
                    CHANNELS 3 Zrotation Yrotation Xrotation
                    JOINT RightHandIndex2
                    {
                      OFFSET -6.341917 0.012471 0.178266
                      CHANNELS 3 Zrotation Yrotation Xrotation
                      JOINT RightHandIndex3
                      {
                        OFFSET -3.654871 -8e-06 -0.0
                        CHANNELS 3 Zrotation Yrotation Xrotation
                        JOINT RightHandIndex4
                        {
                          OFFSET -2.327586 0.0 1e-06
                          CHANNELS 3 Zrotation Yrotation Xrotation
                          JOINT RightHandIndexEnd
                          {
                            OFFSET -2.76179 -0.180656 -0.113078
                            CHANNELS 3 Zrotation Yrotation Xrotation
                          }
                        }
                      }
                    }
                  }
                  JOINT RightHandMiddle1
                  {
                    OFFSET -3.168106 0.246593 1.00103
                    CHANNELS 3 Zrotation Yrotation Xrotation
                    JOINT RightHandMiddle2
                    {
                      OFFSET -6.180828 -0.258836 -1.000895
                      CHANNELS 3 Zrotation Yrotation Xrotation
                      JOINT RightHandMiddle3
                      {
                        OFFSET -4.348901 0.0 -0.0
                        CHANNELS 3 Zrotation Yrotation Xrotation
                        JOINT RightHandMiddle4
                        {
                          OFFSET -3.00024 -4e-06 -2e-06
                          CHANNELS 3 Zrotation Yrotation Xrotation
                          JOINT RightHandMiddleEnd
                          {
                            OFFSET -2.30252 -0.29437 -0.031706
                            CHANNELS 3 Zrotation Yrotation Xrotation
                          }
                        }
                      }
                    }
                  }
                  JOINT RightHandRing1
                  {
                    OFFSET -2.88569 -0.067952 -0.308858
                    CHANNELS 3 Zrotation Yrotation Xrotation
                    JOINT RightHandRing2
                    {
                      OFFSET -5.854198 -0.48613 -1.373731
                      CHANNELS 3 Zrotation Yrotation Xrotation
                      JOINT RightHandRing3
                      {
                        OFFSET -4.33881 -4e-06 -0.0
                        CHANNELS 3 Zrotation Yrotation Xrotation
                        JOINT RightHandRing4
                        {
                          OFFSET -2.654903 -4e-06 4e-06
                          CHANNELS 3 Zrotation Yrotation Xrotation
                          JOINT RightHandRingEnd
                          {
                            OFFSET -1.933568 0.077527 -5.2e-05
                            CHANNELS 3 Zrotation Yrotation Xrotation
                          }
                        }
                      }
                    }
                  }
                  JOINT RightHandPinky1
                  {
                    OFFSET -2.866425 -0.342796 -1.584145
                    CHANNELS 3 Zrotation Yrotation Xrotation
                    JOINT RightHandPinky2
                    {
                      OFFSET -5.091371 -1.332055 -1.772385
                      CHANNELS 3 Zrotation Yrotation Xrotation
                      JOINT RightHandPinky3
                      {
                        OFFSET -3.062664 -4e-06 1e-06
                        CHANNELS 3 Zrotation Yrotation Xrotation
                        JOINT RightHandPinky4
                        {
                          OFFSET -1.546529 4e-06 -2e-06
                          CHANNELS 3 Zrotation Yrotation Xrotation
                          JOINT RightHandPinkyEnd
                          {
                            OFFSET -1.945119 -0.157718 0.057211
                            CHANNELS 3 Zrotation Yrotation Xrotation
                          }
                        }
                      }
                    }
                  }
                }
              }
            }
          }
        }
      }
    }
    JOINT LeftLeg
    {
      OFFSET 10.043214 -8.434526 2.595655
      CHANNELS 3 Zrotation Yrotation Xrotation
      JOINT LeftShin
      {
        OFFSET -1e-06 -43.221752 -0.802913
        CHANNELS 3 Zrotation Yrotation Xrotation
        JOINT LeftFoot
        {
          OFFSET 1e-06 -42.155094 -3.481523
          CHANNELS 3 Zrotation Yrotation Xrotation
          JOINT LeftToeBase
          {
            OFFSET 0.0 -5.059472 13.231529
            CHANNELS 3 Zrotation Yrotation Xrotation
            JOINT LeftToeEnd
            {
              OFFSET -0.009607 -1.647619 6.513017
              CHANNELS 3 Zrotation Yrotation Xrotation
            }
          }
        }
      }
    }
    JOINT RightLeg
    {
      OFFSET -10.047278 -8.29526 2.620317
      CHANNELS 3 Zrotation Yrotation Xrotation
      JOINT RightShin
      {
        OFFSET 1e-06 -43.362206 -0.805556
        CHANNELS 3 Zrotation Yrotation Xrotation
        JOINT RightFoot
        {
          OFFSET 2e-06 -42.117393 -3.478398
          CHANNELS 3 Zrotation Yrotation Xrotation
          JOINT RightToeBase
          {
            OFFSET -0.0 -5.079609 13.284196
            CHANNELS 3 Zrotation Yrotation Xrotation
            JOINT RightToeEnd
            {
              OFFSET 0.009532 -1.634378 6.460591
              CHANNELS 3 Zrotation Yrotation Xrotation
            }
          }
        }
      }
    }
  }
}
MOTION
Frames: 5
Frame Time: 0.03333333333333333
0.0 0.0 0.0 0.0 -0.0 0.0 1.21014 96.152672 -3.812553 -0.656301 -0.356606 4.506533 -1.685276 -0.57954 3.275564 -0.43968 -1.739948 -3.853445 -0.488607 -3.335397 11.288187 -1.164017 3.298623 2.616413 -0.264361 2.262194 -3.6553 3.365283 1.641862 -13.476932 7.7e-05 -2.2e-05 6e-06 0.007615 -0.021609 0.033167 0.697953 -3.762695 -10.775225 -0.683178 3.725718 -10.802711 -5.244689 -12.757646 12.120338 -53.013355 -26.284781 22.388996 0.650206 -34.5252 -0.217128 8.029794 2.307156 -14.344267 -5.882105 9.861284 0.702591 -10.936871 -0.360573 7.156204 -0.0 8.774824 -1e-06 -15.673635 19.005655 6.776411 -1.844032 2.498503 -2.507278 -10.163597 4.678944 4.621109 -20.976021 -1e-06 2e-06 -21.226286 2.451696 -3.593998 -0.0 -5e-06 -2e-06 -1.362682 2.240798 -0.746323 -21.334911 0.584913 3.008323 -13.821213 -1e-06 1e-06 -23.887167 -0.249077 -0.839486 -60.721024 2.780113 -1.286899 -0.294024 1.679686 0.833256 -14.218206 0.093218 1.300581 -34.212048 -0.287559 0.967172 -20.033209 0.964539 1.212844 1e-06 -0.0 1e-06 -3.440388 0.788233 0.501653 -15.928183 -3.167306 2.999706 -6.338824 1e-06 1e-06 -18.123444 3.648185 -4.905672 -3e-06 1e-06 -2e-06 13.232467 10.815033 17.711821 59.003498 1.232236 11.511307 -0.444341 26.448286 0.033402 -2.357941 -5.178228 -18.300951 2.243542 -5.255037 -3.180157 14.282887 -0.826595 6.9525 -2e-06 -12.690605 0.0 15.733953 -17.430378 2.504749 1.665665 -1.955922 -2.878299 4.727798 -4.170588 4.993922 11.020525 2e-06 -2e-06 12.109052 -3.735715 -2.866784 0.0 -1e-06 -0.0 1.291985 -1.928549 -1.498089 14.800125 0.567468 3.865606 14.242569 -1.341736 -6.660657 19.631962 0.143927 -0.648246 48.629669 -0.313186 -6.158385 0.353029 -1.51115 -0.031939 20.222786 3.68431 2.316629 18.78727 5e-06 -1e-06 10.751627 -0.479868 1.397906 -0.0 -0.0 0.0 3.273807 0.305947 -0.580111 21.486811 11.830376 2.266132 8.162926 1e-06 -0.0 18.39908 -3.798985 -4.940577 3e-06 -0.0 -1e-06 2.074802 6.817699 5.448868 0.02587 -0.085119 11.724931 -3.290663 1.687281 -21.566147 1.663138 -1.785936 -0.653217 0.0 -0.0 2e-06 -4.376081 -6.377142 -33.653797 0.195894 0.433475 34.550205 4.777565 -9.311023 2.698747 -1.41388 1.140905 -2.36147 -0.0 -0.0 -1e-06 
0.0 0.0 0.0 0.0 -0.0 0.0 1.114755 95.43438 -2.149167 -1.605731 -0.490535 4.773897 -0.906767 -0.654385 3.137537 -0.236935 -2.057671 -3.930604 -0.186577 -3.784718 10.933122 -1.805075 3.507181 2.825989 -0.130402 2.536527 -3.661389 2.984832 1.963203 -13.540986 7.7e-05 -2.3e-05 6e-06 0.000297 -0.038243 0.001241 0.68765 -3.78379 -10.800167 -0.688262 3.712662 -10.827938 -4.421214 -12.620941 12.140243 -53.913345 -28.30092 18.706432 0.307806 -40.046333 0.052919 10.915347 2.067663 -12.132946 -5.882112 9.861292 0.702591 -10.936878 -0.360573 7.156211 -1e-06 8.774828 -2e-06 -15.729745 18.832989 6.466665 -1.844033 2.498505 -2.507279 -10.163605 4.678948 4.621112 -20.976034 1e-06 4e-06 -21.226301 2.451702 -3.594002 1e-06 -5e-06 1e-06 -1.362681 2.240799 -0.746326 -21.334929 0.584913 3.008326 -13.821224 1e-06 3e-06 -23.887186 -0.249076 -0.839485 -60.459518 2.754963 -1.315269 -0.294025 1.679687 0.833255 -14.218217 0.093218 1.30058 -34.212067 -0.287557 0.96717 -20.033226 0.964538 1.212843 0.0 0.0 0.0 -3.440392 0.788234 0.501657 -15.928196 -3.167308 2.999708 -6.33883 1e-06 1e-06 -18.123463 3.648189 -4.905674 -4e-06 2e-06 -1e-06 12.812674 10.310409 18.080572 58.567097 -0.27552 10.724524 -0.751256 25.962353 -0.100477 -1.813324 -5.333466 -19.992617 2.243541 -5.255036 -3.180157 14.282887 -0.826594 6.952501 -3e-06 -12.690606 1e-06 15.698674 -17.280994 2.643522 1.665667 -1.955921 -2.878298 4.727798 -4.170588 4.993924 11.020524 3e-06 -2e-06 12.10905 -3.735715 -2.866784 -0.0 0.0 -0.0 1.291985 -1.928549 -1.498089 14.800125 0.567469 3.865606 14.242571 -1.341736 -6.660657 19.631962 0.143927 -0.648244 48.614532 -0.337138 -6.149036 0.353029 -1.511151 -0.03194 20.222786 3.684311 2.316629 18.78727 5e-06 -1e-06 10.751625 -0.479868 1.397905 -0.0 -0.0 0.0 3.273806 0.305947 -0.580111 21.486809 11.830378 2.266132 8.162926 2e-06 -1e-06 18.399076 -3.798985 -4.940575 3e-06 0.0 -1e-06 3.572898 8.085822 5.125284 0.000332 -0.231703 14.494862 -4.022162 1.203953 -24.135324 1.709472 -1.843612 -0.780099 -0.0 -0.0 2e-06 -2.440657 -6.705463 -35.39809 0.156946 0.412653 35.829521 4.196087 -7.842031 0.204312 -1.437778 0.969416 -2.126453 -0.0 0.0 -1e-06 
0.0 0.0 0.0 0.0 -0.0 0.0 0.729672 94.830612 1.808537 -2.577634 -0.301516 5.214725 -0.231452 -0.619754 2.654232 -0.087625 -2.653637 -4.198801 0.305233 -4.19654 10.740036 -2.380713 3.709465 3.0239 -0.029507 2.777942 -3.617387 2.653646 2.366302 -13.021371 7.7e-05 -2.3e-05 6e-06 0.003939 -0.024204 0.015607 0.683086 -3.777104 -10.803627 -0.676568 3.735262 -10.823205 -4.302439 -12.465261 12.549275 -54.095818 -29.156086 16.612375 -0.102812 -44.039406 0.214678 12.688261 1.500357 -9.718429 -5.88211 9.861292 0.70259 -10.936873 -0.360576 7.156207 -0.0 8.77483 -1e-06 -15.848011 18.691837 6.314925 -1.844033 2.498507 -2.507279 -10.163602 4.678948 4.621111 -20.976034 -2e-06 -1e-06 -21.226299 2.451698 -3.594006 1e-06 -6e-06 -2e-06 -1.362681 2.240798 -0.746324 -21.334921 0.584908 3.008324 -13.821218 -0.0 2e-06 -23.887178 -0.249082 -0.839486 -60.502621 2.681555 -1.25896 -0.294025 1.679687 0.833258 -14.218212 0.093214 1.300579 -34.212063 -0.287567 0.967169 -20.03322 0.964536 1.212842 -1e-06 -0.0 -1e-06 -3.440389 0.788235 0.501656 -15.928192 -3.167312 2.999707 -6.338829 1e-06 -0.0 -18.123453 3.648185 -4.905676 -4e-06 0.0 -2e-06 13.0631 9.598554 18.591761 57.536106 -1.691056 10.00233 -1.030221 26.382681 -0.3212 -1.499662 -4.91011 -22.003571 2.243543 -5.25504 -3.180159 14.2829 -0.826597 6.952505 -2e-06 -12.690617 1e-06 15.709613 -17.454893 2.695887 1.665667 -1.955922 -2.8783 4.727801 -4.170592 4.993926 11.020534 2e-06 -2e-06 12.109059 -3.735719 -2.866786 -0.0 0.0 -0.0 1.291986 -1.92855 -1.49809 14.800136 0.567467 3.865608 14.24258 -1.341738 -6.660661 19.631977 0.143925 -0.648246 48.902557 -0.290376 -6.210193 0.353028 -1.511152 -0.03194 20.222801 3.68431 2.316629 18.787283 4e-06 -2e-06 10.751633 -0.479869 1.397905 -0.0 -0.0 -0.0 3.273808 0.305947 -0.580111 21.486826 11.830383 2.266132 8.162933 1e-06 -2e-06 18.399097 -3.798988 -4.940581 3e-06 0.0 -1e-06 5.551681 9.10482 11.005898 0.010688 -0.431225 7.102592 -4.844066 0.892427 -23.057856 1.747373 -1.878269 -1.354188 0.0 0.0 2e-06 -0.814347 -6.614078 -35.123821 0.087139 0.282358 37.472118 3.59497 -7.947635 -3.927407 -1.451089 0.901336 -1.995264 0.0 -0.0 -1e-06 
0.0 0.0 0.0 0.0 -0.0 0.0 0.190243 94.397697 6.022561 -3.573144 0.251129 5.567347 0.432149 -0.677247 2.221264 0.004483 -2.687324 -4.425921 0.874397 -4.859193 10.503493 -2.837315 3.70614 2.933339 0.054213 3.103878 -3.728156 2.461411 2.605266 -11.829469 7.7e-05 -2.2e-05 6e-06 -0.004932 -0.015023 -0.00789 0.680439 -3.770502 -10.856996 -0.690652 3.748035 -10.865606 -4.209682 -12.210438 12.790196 -54.464321 -28.788971 17.557644 0.380727 -46.020905 -0.223782 13.708323 0.854269 -7.428352 -5.88211 9.86129 0.702592 -10.936877 -0.360574 7.156207 1e-06 8.774831 -0.0 -15.751074 18.515554 6.34363 -1.844035 2.498505 -2.507279 -10.163605 4.678949 4.621112 -20.976038 -2e-06 1e-06 -21.226303 2.451698 -3.594005 -0.0 -6e-06 -1e-06 -1.362682 2.240801 -0.746323 -21.334929 0.58491 3.008323 -13.821222 -2e-06 1e-06 -23.887184 -0.249079 -0.839485 -60.434021 2.665094 -1.192623 -0.294026 1.679688 0.833257 -14.218221 0.093217 1.300581 -34.212074 -0.287565 0.967167 -20.03323 0.964535 1.212842 -1e-06 -0.0 -0.0 -3.44039 0.788234 0.501656 -15.928196 -3.16731 2.999708 -6.338832 3e-06 1e-06 -18.123459 3.648185 -4.905674 -4e-06 0.0 -1e-06 13.323267 9.080151 19.017662 57.003048 -2.839634 8.907019 -1.04103 26.876015 -0.4088 -1.438184 -4.971316 -23.648148 2.243543 -5.255038 -3.180158 14.2829 -0.826597 6.952505 -2e-06 -12.69061 1e-06 15.665795 -17.45565 2.706371 1.665667 -1.955922 -2.8783 4.727802 -4.170591 4.993926 11.020534 2e-06 -1e-06 12.109059 -3.735718 -2.866785 -0.0 -1e-06 -0.0 1.291986 -1.92855 -1.49809 14.800136 0.567467 3.865609 14.24258 -1.341737 -6.66066 19.631981 0.143925 -0.648246 49.060123 -0.048206 -6.222367 0.353029 -1.511152 -0.03194 20.222803 3.684309 2.316631 18.787287 4e-06 -2e-06 10.751634 -0.479869 1.397906 -0.0 0.0 -0.0 3.273809 0.305947 -0.580111 21.486828 11.830379 2.266133 8.162931 1e-06 -1e-06 18.399096 -3.798988 -4.940579 3e-06 0.0 -1e-06 7.666356 9.737831 13.523148 0.156925 -0.714643 6.513088 -5.316043 1.066121 -21.714485 1.839271 -1.894401 -3.605566 0.0 -0.0 2e-06 0.292652 -6.279756 -32.632027 0.072983 0.388068 37.976177 4.389134 -8.810266 -9.997023 -1.455515 0.841271 -2.495363 0.0 0.0 -1e-06 
0.0 0.0 0.0 0.0 -0.0 0.0 -0.419605 94.562355 10.557552 -4.442138 0.505064 5.8434 0.884193 -0.502019 1.932835 0.156263 -2.777804 -4.637033 1.330593 -4.910741 10.343587 -3.124621 3.660571 2.903546 -0.061826 3.455644 -3.748965 2.537218 2.408302 -10.937722 7.7e-05 -2.2e-05 6e-06 -0.004808 0.051577 -0.023498 0.6984 -3.703171 -10.871361 -0.708805 3.816481 -10.8916 -4.55526 -11.691027 13.491729 -54.255161 -27.956604 19.572256 0.129271 -45.36768 -0.011917 14.161733 0.500362 -4.797112 -5.882109 9.861288 0.702591 -10.936874 -0.360572 7.156206 -2e-06 8.774827 -2e-06 -15.740386 18.608765 6.262294 -1.844032 2.498505 -2.507279 -10.163602 4.678946 4.621109 -20.976028 -0.0 -1e-06 -21.226294 2.4517 -3.594003 -0.0 -8e-06 0.0 -1.362682 2.240799 -0.746324 -21.334917 0.584912 3.008322 -13.821217 -1e-06 2e-06 -23.887175 -0.249077 -0.839486 -60.303276 2.496871 -1.255588 -0.294025 1.679687 0.833258 -14.218212 0.093217 1.30058 -34.212059 -0.28756 0.967166 -20.03322 0.964537 1.212841 -0.0 1e-06 -0.0 -3.44039 0.788234 0.501655 -15.928189 -3.167307 2.999705 -6.338829 0.0 -1e-06 -18.123453 3.648186 -4.905674 -3e-06 1e-06 -2e-06 13.323206 8.942649 19.42565 57.191006 -3.075735 8.049031 -1.079117 27.129223 -0.402962 -1.429303 -5.733882 -23.940434 2.243543 -5.255038 -3.180158 14.282896 -0.826597 6.952503 -2e-06 -12.690608 1e-06 15.762328 -17.421238 2.63133 1.665668 -1.955922 -2.878299 4.727801 -4.170589 4.993924 11.020531 2e-06 -1e-06 12.109058 -3.735718 -2.866785 -0.0 -1e-06 -1e-06 1.291986 -1.928549 -1.498089 14.800132 0.567468 3.865607 14.242578 -1.341737 -6.660659 19.631975 0.143926 -0.648246 49.39994 -0.076801 -6.251731 0.35303 -1.511151 -0.03194 20.222797 3.68431 2.316629 18.787279 4e-06 -2e-06 10.751633 -0.479868 1.397906 -0.0 -0.0 -0.0 3.273807 0.305946 -0.580111 21.48682 11.830379 2.266131 8.16293 1e-06 -1e-06 18.399088 -3.798986 -4.940578 3e-06 0.0 -1e-06 9.516748 10.321772 11.990371 0.20591 -0.971211 13.669145 -5.257147 3.076106 -18.608879 1.952114 -1.962982 -8.551083 -0.0 -0.0 2e-06 1.320944 -5.868577 -29.704967 0.027981 0.335815 38.116013 5.282357 -9.058624 -15.255904 -1.443971 0.799773 -2.783466 0.0 -0.0 -1e-06 
